<?xml version="1.0" encoding="UTF-8"?>
<svg xmlns="http://www.w3.org/2000/svg" xmlns:xlink="http://www.w3.org/1999/xlink" width="0" height="0">
    <symbol id="map" width="25" height="24" viewBox="0 0 25 24">
        <path d="M12.4998 22.8002C17.2998 17.7602 19.6998 12.9602 19.6998 8.4002C19.6998 4.42375 16.4763 1.2002 12.4998 1.2002C8.52335 1.2002 5.2998 4.42375 5.2998 8.4002C5.2998 12.9602 7.6998 17.7602 12.4998 22.8002Z"
              stroke-width="1.5" stroke-linecap="square"/>
        <path d="M12.5004 13.2C14.4886 13.2 16.1004 11.5882 16.1004 9.6C16.1004 7.61177 14.4886 6 12.5004 6C10.5122 6 8.90039 7.61177 8.90039 9.6C8.90039 11.5882 10.5122 13.2 12.5004 13.2Z"
              stroke-width="1.5" stroke-linecap="square"/>
    </symbol>
    <symbol id="icons (1)" width="25" height="24" viewBox="0 0 25 24" fill="none">
        <path d="M12.4998 22.8002C17.2998 17.7602 19.6998 12.9602 19.6998 8.4002C19.6998 4.42375 16.4763 1.2002 12.4998 1.2002C8.52335 1.2002 5.2998 4.42375 5.2998 8.4002C5.2998 12.9602 7.6998 17.7602 12.4998 22.8002Z"
              stroke-width="1.5" stroke-linecap="square"/>
        <path d="M12.5004 13.2C14.4886 13.2 16.1004 11.5882 16.1004 9.6C16.1004 7.61177 14.4886 6 12.5004 6C10.5122 6 8.90039 7.61177 8.90039 9.6C8.90039 11.5882 10.5122 13.2 12.5004 13.2Z"
              stroke-width="1.5" stroke-linecap="square"/>
    </symbol>
</svg>
