<?xml version="1.0" encoding="UTF-8"?>
<svg xmlns="http://www.w3.org/2000/svg" xmlns:xlink="http://www.w3.org/1999/xlink" width="0" height="0">
    <symbol id="viber" width="25" height="24" viewBox="0 0 25 24">
        <path d="M1.7002 22.8138L3.68331 18.2467C2.16612 16.093 1.48706 13.4596 1.77356 10.8408C2.06007 8.22197 3.29243 5.79772 5.23939 4.02299C7.18635 2.24827 9.71406 1.24507 12.3481 1.20166C14.9822 1.15826 17.5416 2.07763 19.546 3.78725C21.5504 5.49686 22.8619 7.87919 23.2346 10.4872C23.6072 13.0951 23.0153 15.7494 21.5699 17.9519C20.1245 20.1545 17.925 21.7538 15.3841 22.4498C12.8433 23.1458 10.1358 22.8906 7.76971 21.7321L1.7002 22.8138"
              stroke-width="1.5" stroke-linecap="round" stroke-linejoin="round"/>
        <path d="M8.91113 9.59287C8.91113 9.75225 8.97445 9.9051 9.08714 10.0178C9.19984 10.1305 9.3527 10.1938 9.51208 10.1938C9.67146 10.1938 9.82431 10.1305 9.93701 10.0178C10.0497 9.9051 10.113 9.75225 10.113 9.59287V8.39098C10.113 8.2316 10.0497 8.07875 9.93701 7.96605C9.82431 7.85335 9.67146 7.79004 9.51208 7.79004C9.3527 7.79004 9.19984 7.85335 9.08714 7.96605C8.97445 8.07875 8.91113 8.2316 8.91113 8.39098V9.59287ZM8.91113 9.59287C8.91113 11.1867 9.54427 12.7152 10.6713 13.8422C11.7982 14.9692 13.3268 15.6023 14.9206 15.6023H16.1224C16.2818 15.6023 16.4347 15.539 16.5474 15.4263C16.6601 15.3136 16.7234 15.1607 16.7234 15.0013C16.7234 14.842 16.6601 14.6891 16.5474 14.5764C16.4347 14.4637 16.2818 14.4004 16.1224 14.4004H14.9206C14.7612 14.4004 14.6083 14.4637 14.4956 14.5764C14.3829 14.6891 14.3196 14.842 14.3196 15.0013C14.3196 15.1607 14.3829 15.3136 14.4956 15.4263C14.6083 15.539 14.7612 15.6023 14.9206 15.6023"
              stroke-width="1.5" stroke-linecap="round" stroke-linejoin="round"/>
    </symbol>
    <symbol id="facebook" width="16" height="24" viewBox="0 0 16 24">
        <path d="M1.5 9.6002V14.4002H5.1V22.8002H9.9V14.4002H13.5L14.7 9.6002H9.9V7.2002C9.9 6.88194 10.0264 6.57671 10.2515 6.35167C10.4765 6.12662 10.7817 6.0002 11.1 6.0002H14.7V1.2002H11.1C9.5087 1.2002 7.98258 1.83234 6.85736 2.95755C5.73214 4.08277 5.1 5.6089 5.1 7.2002V9.6002H1.5Z"
              stroke-width="1.5" stroke-linecap="round" stroke-linejoin="round"/>
    </symbol>
    <symbol id="instagram" width="25" height="24" viewBox="0 0 25 24">
        <g clip-path="url(#clip0_2142_20053)">
            <path d="M17.6769 1.64697H7.32393C4.46505 1.64697 2.14746 3.96456 2.14746 6.82344V17.1764C2.14746 20.0353 4.46505 22.3529 7.32393 22.3529H17.6769C20.5358 22.3529 22.8533 20.0353 22.8533 17.1764V6.82344C22.8533 3.96456 20.5358 1.64697 17.6769 1.64697Z"
                  stroke-width="1.5" stroke-linecap="round" stroke-linejoin="round"/>
            <path d="M12.4995 15.8824C14.6437 15.8824 16.3819 14.1442 16.3819 12C16.3819 9.85586 14.6437 8.11768 12.4995 8.11768C10.3554 8.11768 8.61719 9.85586 8.61719 12C8.61719 14.1442 10.3554 15.8824 12.4995 15.8824Z"
                  stroke-width="1.5" stroke-linecap="round" stroke-linejoin="round"/>
            <path d="M18.3232 6.17627V6.17727" stroke-width="1.5" stroke-linecap="round" stroke-linejoin="round"/>
        </g>
        <defs>
            <clipPath>
                <rect width="24" height="24" transform="translate(0.5)"/>
            </clipPath>
        </defs>
    </symbol>
    <symbol id="telegram" width="25" height="22" viewBox="0 0 25 22">
        <path d="M16.1002 8.5999L11.3002 13.3999L18.5002 20.5999L23.3002 1.3999L1.7002 9.7999L6.5002 12.1999L8.9002 19.3999L12.5002 14.5999"
              stroke-width="1.5" stroke-linecap="round" stroke-linejoin="round"/>
    </symbol>
    <symbol id="youtube" width="25" height="24" viewBox="0 0 25 24">
        <g clip-path="url(#clip0_2142_20060)">
            <path d="M18.6111 3H6.38889C3.68883 3 1.5 5.30254 1.5 8.14286V15.8571C1.5 18.6975 3.68883 21 6.38889 21H18.6111C21.3112 21 23.5 18.6975 23.5 15.8571V8.14286C23.5 5.30254 21.3112 3 18.6111 3Z"
                  stroke-width="1.5" stroke-linecap="round" stroke-linejoin="round"/>
            <path d="M10.5 8L16.5 12L10.5 16V8Z" stroke-width="1.5" stroke-linecap="round" stroke-linejoin="round"/>
        </g>
        <defs>
            <clipPath>
                <rect width="24" height="24" transform="translate(0.5)"/>
            </clipPath>
        </defs>
    </symbol>
</svg>
