<svg width="25" height="24" viewBox="0 0 25 24" fill="none" xmlns="http://www.w3.org/2000/svg">
<g clip-path="url(#clip0_308_22792)">
<path d="M17.6769 1.64746H7.32393C4.46505 1.64746 2.14746 3.96505 2.14746 6.82393V17.1769C2.14746 20.0358 4.46505 22.3533 7.32393 22.3533H17.6769C20.5358 22.3533 22.8533 20.0358 22.8533 17.1769V6.82393C22.8533 3.96505 20.5358 1.64746 17.6769 1.64746Z" stroke="#FFE711" stroke-width="1.5" stroke-linecap="round" stroke-linejoin="round"/>
<path d="M12.4995 15.8819C14.6437 15.8819 16.3819 14.1437 16.3819 11.9995C16.3819 9.85538 14.6437 8.11719 12.4995 8.11719C10.3554 8.11719 8.61719 9.85538 8.61719 11.9995C8.61719 14.1437 10.3554 15.8819 12.4995 15.8819Z" stroke="#FFE711" stroke-width="1.5" stroke-linecap="round" stroke-linejoin="round"/>
<path d="M18.3232 6.17676V6.17776" stroke="#FFE711" stroke-width="1.5" stroke-linecap="round" stroke-linejoin="round"/>
</g>
<defs>
<clipPath id="clip0_308_22792">
<rect width="24" height="24" fill="white" transform="translate(0.5)"/>
</clipPath>
</defs>
</svg>
